<?xml version="1.0" encoding="utf-8"?>
<!-- Generator: Adobe Illustrator 23.0.3, SVG Export Plug-In . SVG Version: 6.00 Build 0)  -->
<svg version="1.1" id="Layer_1" xmlns="http://www.w3.org/2000/svg" xmlns:xlink="http://www.w3.org/1999/xlink" x="0px" y="0px"
	 viewBox="0 0 512.6 73" style="enable-background:new 0 0 512.6 73;" xml:space="preserve">
<style type="text/css">
	.st0{fill:#1E3770;stroke:#FFFFFF;stroke-width:0.25;stroke-miterlimit:10;}
	.st1{fill:#1E3770;}
	.st2{display:none;}
	.st3{display:inline;}
	.st4{fill:#00A99D;}
	.st5{fill:#0071BC;}
	.st6{fill:#FFFFFF;}
	.st7{fill:#1B1464;}
	.st8{fill:#2E3192;}
	.st9{fill:#444444;}
</style>
<g>
	<path class="st0" d="M96.5,63.2V42.8h3.2v0.1l11.6,20.3h14.1L112.6,42h0.2c4.1-1,7.2-2.9,9.4-5.6c2.2-2.7,3.2-6,3.2-9.9
		c0-3.3-0.8-6.2-2.2-8.7c-1.4-2.6-3.7-4.5-6.6-6c-2.9-1.4-6.5-2.2-10.8-2.2H83.7v21.7l5.7,3.6c0,0,0.9,0.9,0,1.9l-5.7,3.9v22.5
		C83.7,63.2,96.5,63.2,96.5,63.2z M96.5,20.3h8.2c2.6,0,4.5,0.7,5.8,1.9c1.2,1.2,1.9,2.9,1.9,5.1c0,2.3-0.7,4-1.9,5.2
		c-1.2,1.1-3.2,1.8-5.8,1.8h-8.2V20.3z"/>
	<path class="st1" d="M83.7,9.6h22.1c4.3,0,7.8,0.8,10.8,2.2s5.1,3.5,6.6,6c1.4,2.6,2.2,5.5,2.2,8.7c0,3.9-1,7.2-3.2,9.9
		s-5.3,4.6-9.4,5.6h-0.2l12.8,21.2h-14.1L99.7,42.9v-0.1h-3.2v20.3H83.7V40.7l-0.2,0.2v22.5h13V43h2.9L111,63.3h14.4l-12.8-21.2
		c4.2-1,7.3-2.9,9.4-5.7s3.2-6,3.2-10c0-3.3-0.8-6.2-2.2-8.8c-1.5-2.6-3.7-4.6-6.6-6c-2.9-1.5-6.5-2.2-10.9-2.2h-22v21.8l0.2,0.1
		V9.6z"/>
	<g>
		<path class="st1" d="M135.3,35.7c-2.8-0.7-5-2.1-6.8-4.3c-1.7-2.2-2.6-4.8-2.6-8.1c0-4.4,1.5-7.8,4.5-10.2c3-2.4,7.3-3.6,12.8-3.6
			h24.5v53.9h-25.1c-5.8,0-10.1-1.3-13.2-3.9c-3.1-2.6-4.6-6.2-4.6-10.9c0-3.1,0.9-6,2.8-8.3C129.5,37.9,132.1,36.4,135.3,35.7z
			 M154.6,19.9h-8.4c-4.6,0-6.9,1.9-6.9,5.8s2.3,5.8,6.8,5.8h8.5L154.6,19.9L154.6,19.9z M145.3,52.8h9.3V40.7h-9.2
			c-2.4,0-4.2,0.6-5.4,1.6c-1.2,1.1-1.9,2.6-1.9,4.5C138,50.8,140.5,52.8,145.3,52.8z"/>
		<path class="st1" d="M167.8,63.5h-25.2c-5.8,0-10.2-1.3-13.3-3.9c-3.1-2.6-4.6-6.2-4.6-11c0-3.1,0.9-6,2.9-8.4
			c1.8-2.3,4.3-3.9,7.3-4.6c-2.6-0.8-4.7-2.1-6.3-4.2c-1.7-2.2-2.6-4.9-2.6-8.2c0-4.4,1.5-7.9,4.5-10.3c3-2.4,7.3-3.6,12.9-3.6H168
			L167.8,63.5L167.8,63.5z M143.2,9.6c-5.4,0-9.6,1.2-12.7,3.6c-2.9,2.4-4.4,5.8-4.4,10.1c0,3.2,0.9,6,2.6,8c1.7,2.1,4,3.5,6.7,4.2
			l0.6,0.1l-0.6,0.1c-3.2,0.8-5.8,2.4-7.7,4.7c-1.9,2.4-2.8,5.1-2.8,8.2c0,4.5,1.5,8.1,4.5,10.7c3,2.6,7.5,3.9,13.1,3.9h24.9V9.6
			H143.2z M154.8,52.9h-9.4c-4.9,0-7.4-2.1-7.4-6c0-2,0.7-3.5,2-4.6s3.1-1.7,5.5-1.7h9.4v12.3H154.8z M145.4,40.8
			c-2.3,0-4.1,0.6-5.3,1.6s-1.9,2.6-1.9,4.4c0,3.9,2.4,5.8,7.1,5.8h9.2V40.8H145.4z M154.8,31.6h-8.7c-4.6,0-6.9-2-6.9-6
			s2.4-6,7.1-6h8.5L154.8,31.6L154.8,31.6z M146.3,20.1c-4.5,0-6.8,1.9-6.8,5.7s2.2,5.7,6.6,5.7h8.4V20.1H146.3z"/>
	</g>
</g>
<g class="st2">
	<g class="st3">
		<path class="st4" d="M11.9,8.9c6.5,0,11.8,5.3,11.8,11.8c0,3-1.1,5.8-3,7.9c-0.2,0.2-0.5,0.5-0.7,0.7c-1.9,2.1-3,4.8-3,7.9
			s1.1,5.8,3,7.9c0.2,0.2,0.4,0.5,0.7,0.7c1.9,2.1,3,4.8,3,7.9c0,6.5-5.3,11.8-11.8,11.8S0.1,60.2,0.1,53.7c0-3,1.1-5.8,3-7.9
			c0.2-0.2,0.5-0.5,0.7-0.7c1.9-2.1,3-4.8,3-7.9c0-3.1-1.1-5.8-3-7.9c-0.2-0.2-0.4-0.5-0.7-0.7c-1.9-2.1-3-4.8-3-7.9
			C0.2,14.2,5.4,8.9,11.9,8.9z"/>
		<path class="st4" d="M11.9,65.4C5.3,65.4,0,60.1,0,53.5c0-2.9,1.1-5.8,3-7.9c0.2-0.2,0.5-0.5,0.7-0.7c1.9-2.1,3-4.9,3-7.8
			c0-2.9-1.1-5.6-3-7.8c-0.2-0.2-0.4-0.5-0.7-0.7c-2-2.2-3.1-5-3.1-8C0,14.1,5.4,8.8,11.9,8.8s11.9,5.3,11.9,11.9
			c0,2.9-1.1,5.8-3,7.9c-0.2,0.2-0.5,0.5-0.7,0.7c-1.9,2.1-3,4.9-3,7.8s1.1,5.6,3,7.8c0.2,0.2,0.4,0.5,0.7,0.7c2,2.2,3.1,5,3.1,8
			C23.8,60,18.5,65.4,11.9,65.4z M11.9,9.1c-6.4,0-11.6,5.2-11.6,11.6c0,2.9,1.1,5.6,3,7.8C3.5,28.7,3.8,29,4,29.2c2,2.2,3,5,3,7.9
			C7,40,5.9,42.9,4,45c-0.2,0.2-0.4,0.5-0.7,0.7c-1.9,2.1-3,4.9-3,7.7C0.3,59.8,5.5,65,11.9,65s11.6-5.1,11.6-11.5
			c0-2.9-1.1-5.6-3-7.8c-0.2-0.2-0.5-0.4-0.7-0.7c-2-2.2-3-5-3-7.9s1.1-5.8,3-7.9c0.2-0.2,0.4-0.5,0.7-0.7c1.9-2.1,3-4.9,3-7.7
			C23.5,14.3,18.3,9.1,11.9,9.1z"/>
	</g>
</g>
<g class="st2">
	<g class="st3">
		<path class="st5" d="M-8,17.2c4.6-4.6,12-4.6,16.6,0c2.1,2.1,3.3,4.9,3.4,7.7c0,0.3,0,0.6,0,1c0.1,2.8,1.3,5.5,3.4,7.7
			s4.9,3.3,7.7,3.4c0.3,0,0.6,0,1,0c2.8,0.1,5.5,1.3,7.7,3.4c4.6,4.6,4.6,12,0,16.6s-12,4.6-16.6,0c-2.1-2.1-3.3-4.9-3.4-7.7
			c0-0.3,0-0.6,0-1c-0.1-2.8-1.3-5.5-3.4-7.7s-4.9-3.3-7.7-3.4c-0.3,0-0.6,0-1,0c-2.8-0.1-5.5-1.3-7.7-3.4
			C-12.6,29.2-12.6,21.8-8,17.2z"/>
		<path class="st6" d="M23.5,60.6c-3.2,0-6.2-1.2-8.4-3.5c-2.1-2.1-3.3-4.8-3.5-7.8c0-0.3,0-0.7,0-1c-0.2-2.9-1.4-5.6-3.4-7.6
			s-4.7-3.2-7.6-3.4c-0.3,0-0.6,0-1,0c-2.9-0.2-5.7-1.4-7.8-3.5c-2.2-2.2-3.5-5.2-3.5-8.4s1.2-6.2,3.5-8.4l0.1,0.1L-8.2,17
			c2.2-2.2,5.2-3.5,8.4-3.5s6.2,1.2,8.4,3.5c2.1,2.1,3.3,4.8,3.5,7.8c0,0.3,0,0.7,0,1c0.2,2.9,1.4,5.6,3.4,7.6s4.7,3.2,7.6,3.4
			c0.3,0,0.6,0,1,0c2.9,0.2,5.7,1.4,7.8,3.5c4.6,4.6,4.6,12.2,0,16.8C29.7,59.3,26.7,60.6,23.5,60.6z M0,37.1c0.2,0,0.4,0,0.6,0
			c2.9,0.2,5.7,1.4,7.8,3.5s3.3,4.8,3.5,7.8c0,0.3,0,0.7,0,1c0.2,2.9,1.4,5.5,3.4,7.6c4.5,4.5,11.9,4.5,16.4,0s4.5-11.9,0-16.4
			c-2-2-4.7-3.2-7.6-3.4c-0.3,0-0.6,0-1,0c-2.9-0.2-5.7-1.4-7.8-3.5s-3.3-4.8-3.5-7.8c0-0.3,0-0.7,0-1c-0.2-2.9-1.4-5.5-3.4-7.6
			c-4.5-4.5-11.9-4.5-16.4,0l0,0c-2.2,2.2-3.4,5.1-3.4,8.2s1.2,6,3.4,8.2c2,2,4.7,3.2,7.6,3.4C-0.2,37.1-0.1,37.1,0,37.1z"/>
	</g>
</g>
<g class="st2">
	<g class="st3">
		<path class="st7" d="M-8,57c-4.6-4.6-4.6-12,0-16.6c2.1-2.1,4.9-3.3,7.7-3.4c0.3,0,0.6,0,1,0c2.8-0.1,5.5-1.3,7.7-3.4
			s3.3-4.9,3.4-7.7c0-0.3,0-0.6,0-1c0.1-2.8,1.3-5.5,3.4-7.7c4.6-4.6,12-4.6,16.6,0s4.6,12,0,16.6c-2.1,2.1-4.9,3.3-7.7,3.4
			c-0.3,0-0.6,0-1,0c-2.8,0.1-5.5,1.3-7.7,3.4s-3.3,4.9-3.4,7.7c0,0.3,0,0.6,0,1c-0.1,2.8-1.2,5.6-3.4,7.7C4,61.6-3.4,61.6-8,57z"/>
		<path class="st6" d="M0.3,60.6c-3,0-6.1-1.2-8.4-3.5l0,0c-4.6-4.6-4.6-12.2,0-16.8c2.1-2.1,4.8-3.3,7.8-3.5c0.3,0,0.7,0,1,0
			c2.9-0.2,5.6-1.4,7.6-3.4s3.2-4.7,3.4-7.6c0-0.3,0-0.6,0-1c0.2-2.9,1.4-5.7,3.5-7.8c2.2-2.2,5.2-3.5,8.4-3.5s6.2,1.2,8.4,3.5
			c2.2,2.2,3.5,5.2,3.5,8.4s-1.2,6.2-3.5,8.4c-2.1,2.1-4.8,3.3-7.8,3.5c-0.3,0-0.7,0-1,0c-2.9,0.2-5.6,1.4-7.6,3.5
			c-2,2-3.2,4.7-3.4,7.6c0,0.3,0,0.6,0,1c-0.2,2.9-1.4,5.7-3.5,7.8C6.4,59.4,3.4,60.6,0.3,60.6z M-7.9,56.9c4.5,4.5,11.9,4.5,16.4,0
			c2-2,3.2-4.7,3.4-7.6c0-0.3,0-0.6,0-1c0.2-2.9,1.4-5.7,3.5-7.8s4.8-3.3,7.8-3.5c0.3,0,0.7,0,1,0c2.9-0.2,5.5-1.4,7.6-3.4
			c2.2-2.2,3.4-5.1,3.4-8.2s-1.2-6-3.4-8.2s-5.2-3.3-8.3-3.3s-6,1.2-8.2,3.4c-2,2-3.2,4.7-3.4,7.6c0,0.3,0,0.6,0,1
			c-0.2,2.9-1.4,5.7-3.5,7.8S3.6,37,0.6,37.2c-0.3,0-0.7,0-1,0c-2.9,0.2-5.5,1.4-7.6,3.4C-12.4,45-12.4,52.4-7.9,56.9L-7.9,56.9z"/>
	</g>
</g>
<g class="st2">
	<g class="st3">
		<path class="st8" d="M40.1,37.1c0,6.5-5.3,11.8-11.8,11.8c-3,0-5.8-1.1-7.9-3c-0.2-0.2-0.5-0.5-0.7-0.7c-2.1-1.9-4.8-3-7.9-3
			s-5.8,1.1-7.9,3c-0.2,0.2-0.5,0.4-0.7,0.7c-2.1,1.9-4.8,3-7.9,3c-6.5,0-11.8-5.3-11.8-11.8s5.3-11.8,11.8-11.8c3,0,5.8,1.1,7.9,3
			c0.2,0.2,0.5,0.5,0.7,0.7c2.1,1.9,4.8,3,7.9,3s5.8-1.1,7.9-3c0.2-0.2,0.5-0.4,0.7-0.7c2.1-1.9,4.8-3,7.9-3
			C34.8,25.3,40.1,30.6,40.1,37.1z"/>
		<path class="st6" d="M28.3,49c-2.9,0-5.8-1.1-7.9-3c-0.2-0.2-0.5-0.5-0.7-0.7c-2.1-1.9-4.9-3-7.8-3s-5.6,1.1-7.8,3
			c-0.2,0.2-0.5,0.4-0.7,0.7c-2.2,2-5,3.1-8,3.1c-6.4-0.1-11.8-5.5-11.8-12c0-6.6,5.3-11.9,11.9-11.9c2.9,0,5.8,1.1,7.9,3
			c0.2,0.2,0.5,0.5,0.7,0.7c2.1,1.9,4.9,3,7.8,3s5.6-1.1,7.8-3c0.2-0.2,0.5-0.4,0.7-0.7c2.2-2,5-3.1,8-3.1c6.6,0,11.9,5.3,11.9,11.9
			C40.2,43.6,34.9,49,28.3,49z M11.9,42c2.9,0,5.8,1.1,7.9,3c0.2,0.2,0.5,0.4,0.7,0.7c2.1,1.9,4.9,3,7.7,3c6.4,0,11.6-5.2,11.6-11.6
			s-5.2-11.6-11.6-11.6c-2.9,0-5.6,1.1-7.8,3c-0.2,0.2-0.4,0.5-0.7,0.7c-2.2,2-5,3-7.9,3s-5.8-1.1-7.9-3c-0.2-0.2-0.5-0.4-0.7-0.7
			c-2.1-1.9-4.9-3-7.7-3c-6.4,0-11.6,5.2-11.6,11.6s5.2,11.6,11.6,11.6c2.9,0,5.6-1.1,7.8-3C3.5,45.5,3.8,45.2,4,45
			C6.1,43.1,9,42,11.9,42z"/>
	</g>
</g>
<g>
	<rect x="41.3" y="30.6" class="st1" width="7.7" height="10.1"/>
</g>
<g>
	<path class="st1" d="M80.5,19.9V9.5H60.2H47h-0.1v20.9H26.6V9.5h-13v53.9h13V40.9h20.3v22.5H47h13.1h20.3V52.9H60.2V41.2h6v6.3
		c0,0.2,0.1,0.5,0.4,0.6c0.2,0.1,0.5,0,0.7-0.1l18.1-11.5c0.1-0.1,0.2-0.3,0.2-0.4c0-0.2-0.1-0.3-0.2-0.4L67.1,24.1
		c-0.2-0.2-0.4-0.2-0.7-0.1c-0.2,0.1-0.4,0.3-0.4,0.6v6.3h-6v-11C60,19.9,80.5,19.9,80.5,19.9z"/>
	<path class="st1" d="M80.7,63.5H46.9V41H26.7v22.5H13.5V9.4h13.3v20.9h20.1V9.4h33.8V20H60.3v10.8H66v-6.2c0-0.3,0.2-0.6,0.5-0.7
		s0.6-0.1,0.8,0.2l18.1,11.5c0.1,0.1,0.2,0.3,0.2,0.5s-0.1,0.4-0.2,0.5L67.2,48.1c-0.2,0.2-0.5,0.3-0.8,0.2s-0.5-0.4-0.5-0.7v-6.1
		h-5.7v11.3h20.3L80.7,63.5L80.7,63.5z M47.1,63.2h33.3V53H60V41.1h6.2v6.4c0,0.2,0.1,0.4,0.3,0.4c0.2,0.1,0.4,0,0.5-0.1l18.1-11.5
		c0.1-0.1,0.1-0.2,0.1-0.3s0-0.2-0.1-0.3L67,24.2c-0.1-0.1-0.3-0.2-0.5-0.1s-0.3,0.2-0.3,0.4v6.4H60V19.6h20.3v-10H47.1v20.9H26.5
		V9.6H13.7v53.6h12.8V40.8h20.7v22.4C47.2,63.2,47.1,63.2,47.1,63.2z"/>
</g>
<g>
	<path class="st9" d="M198.5,16.5v3.9h-8.2v4.2h6.1v3.8h-6.1v8.1h-4.9v-20H198.5z"/>
	<path class="st9" d="M205.9,16.5v20.1H201V16.5H205.9z"/>
	<path class="st9" d="M227.4,36.6h-4.9l-8.2-12.4v12.4h-4.9V16.5h4.9l8.2,12.4V16.5h4.9V36.6z"/>
	<path class="st9" d="M243.4,33H236l-1.2,3.5h-5.1l7.3-20.1h5.7l7.3,20.1h-5.2L243.4,33z M242.2,29.3l-2.5-7.3l-2.5,7.3H242.2z"/>
	<path class="st9" d="M270,36.6h-4.9l-8.2-12.4v12.4H252V16.5h4.9l8.2,12.4V16.5h4.9V36.6z"/>
	<path class="st9" d="M273.9,21.2c0.9-1.6,2.1-2.8,3.6-3.6c1.5-0.9,3.3-1.3,5.2-1.3c2.4,0,4.4,0.6,6.1,1.9s2.8,3,3.4,5.1h-5.4
		c-0.4-0.8-1-1.5-1.7-1.9s-1.6-0.7-2.5-0.7c-1.5,0-2.7,0.5-3.7,1.6c-0.9,1-1.4,2.4-1.4,4.2s0.5,3.2,1.4,4.2s2.2,1.6,3.7,1.6
		c0.9,0,1.8-0.2,2.5-0.7c0.7-0.4,1.3-1.1,1.7-1.9h5.4c-0.6,2.2-1.7,3.9-3.4,5.1c-1.7,1.2-3.7,1.9-6.1,1.9c-1.9,0-3.7-0.4-5.2-1.3
		c-1.5-0.9-2.7-2.1-3.6-3.6s-1.3-3.3-1.3-5.3C272.7,24.5,273.1,22.8,273.9,21.2z"/>
	<path class="st9" d="M300.1,20.4v4.1h6.5v3.8h-6.5v4.4h7.4v3.9h-12.3V16.5h12.3v3.9H300.1z"/>
	<path class="st9" d="M329.8,17.8c1.6,0.8,2.8,2,3.7,3.5c0.9,1.5,1.3,3.3,1.3,5.2c0,2-0.4,3.7-1.3,5.2s-2.1,2.7-3.7,3.5
		s-3.4,1.3-5.5,1.3h-7.5v-20h7.5C326.4,16.5,328.2,16.9,329.8,17.8z M328.3,30.8c1-1,1.5-2.4,1.5-4.3s-0.5-3.3-1.5-4.3
		s-2.5-1.5-4.3-1.5h-2.3v11.7h2.3C325.8,32.3,327.2,31.8,328.3,30.8z"/>
	<path class="st9" d="M342.4,20.4v4.1h6.5v3.8h-6.5v4.4h7.4v3.9h-12.3V16.5h12.3v3.9H342.4z"/>
	<path class="st9" d="M367.5,26.2c-0.5,1-1.4,1.7-2.5,2.3c-1.1,0.6-2.5,0.9-4.1,0.9h-3v7.2H353V16.5h7.9c1.6,0,3,0.3,4.1,0.8
		c1.1,0.6,1.9,1.3,2.5,2.3s0.8,2.1,0.8,3.3C368.3,24.1,368,25.2,367.5,26.2z M362.6,24.8c0.5-0.4,0.7-1.1,0.7-1.9s-0.2-1.4-0.7-1.9
		c-0.5-0.4-1.2-0.7-2.1-0.7h-2.7v5h2.7C361.5,25.5,362.2,25.3,362.6,24.8z"/>
	<path class="st9" d="M383.3,33h-7.5l-1.2,3.5h-5.1l7.3-20.1h5.7l7.3,20.1h-5.2L383.3,33z M382,29.3l-2.5-7.3l-2.5,7.3H382z"/>
	<path class="st9" d="M402.1,36.6l-4.2-7.6h-1.2v7.6h-4.9V16.5h8.2c1.6,0,2.9,0.3,4,0.8c1.1,0.6,1.9,1.3,2.5,2.3s0.8,2,0.8,3.2
		c0,1.3-0.4,2.5-1.1,3.6c-0.8,1-1.9,1.8-3.3,2.2l4.6,7.9L402.1,36.6L402.1,36.6z M396.7,25.5h3c0.9,0,1.6-0.2,2-0.7
		c0.4-0.4,0.7-1.1,0.7-1.9s-0.2-1.4-0.7-1.8c-0.4-0.4-1.1-0.7-2-0.7h-3V25.5z"/>
	<path class="st9" d="M424.9,16.5v3.9h-5.3v16.1h-4.9V20.4h-5.3v-3.9H424.9z"/>
	<path class="st9" d="M450.1,16.5v20.1h-4.9v-12l-4.5,12h-3.9l-4.5-12.1v12.1h-4.9V16.5h5.8l5.6,13.9l5.6-13.9H450.1z"/>
	<path class="st9" d="M458.5,20.4v4.1h6.5v3.8h-6.5v4.4h7.4v3.9h-12.3V16.5h12.3v3.9H458.5z"/>
	<path class="st9" d="M487,36.6h-4.9l-8.2-12.4v12.4H469V16.5h4.9l8.2,12.4V16.5h4.9V36.6z"/>
	<path class="st9" d="M504.9,16.5v3.9h-5.3v16.1h-4.9V20.4h-5.3v-3.9H504.9z"/>
</g>
<g>
	<path class="st9" d="M195.6,48.3c-0.3-0.5-0.7-0.9-1.2-1.2s-1.2-0.4-1.9-0.4c-1.3,0-2.3,0.4-3,1.2c-0.8,0.8-1.1,1.9-1.1,3.3
		c0,1.5,0.4,2.6,1.2,3.4c0.8,0.8,1.9,1.2,3.3,1.2c0.9,0,1.8-0.2,2.4-0.7c0.7-0.5,1.1-1.2,1.4-2.1h-4.9v-2.8h8.4v3.6
		c-0.3,1-0.8,1.9-1.5,2.7s-1.6,1.5-2.6,2c-1.1,0.5-2.2,0.8-3.6,0.8c-1.6,0-3-0.3-4.2-1s-2.2-1.6-2.9-2.9c-0.7-1.2-1-2.6-1-4.2
		c0-1.6,0.3-3,1-4.2s1.6-2.2,2.9-2.9c1.2-0.7,2.6-1,4.2-1c1.9,0,3.5,0.5,4.8,1.4s2.2,2.2,2.6,3.8C199.9,48.3,195.6,48.3,195.6,48.3z
		"/>
	<path class="st9" d="M205.7,58.3c-1.2-0.7-2.2-1.7-3-2.9c-0.7-1.2-1.1-2.6-1.1-4.2c0-1.6,0.4-2.9,1.1-4.2c0.7-1.2,1.7-2.2,3-2.9
		c1.2-0.7,2.6-1,4.1-1s2.9,0.3,4.1,1c1.2,0.7,2.2,1.7,2.9,2.9s1.1,2.6,1.1,4.2c0,1.6-0.4,3-1.1,4.2c-0.7,1.2-1.7,2.2-2.9,2.9
		s-2.6,1-4.1,1S206.9,59,205.7,58.3z M212.8,54.5c0.8-0.8,1.1-2,1.1-3.3c0-1.4-0.4-2.5-1.1-3.4c-0.8-0.8-1.8-1.3-3-1.3
		c-1.3,0-2.3,0.4-3.1,1.2s-1.1,2-1.1,3.4s0.4,2.5,1.1,3.4c0.8,0.8,1.8,1.3,3.1,1.3C211.1,55.8,212.1,55.4,212.8,54.5z"/>
	<path class="st9" d="M235,43.3l-5.6,15.9h-4.8L219,43.3h4.1l3.9,12l4-12H235z"/>
	<path class="st9" d="M248,43.3v3.1h-4.2v12.8h-3.9V46.4h-4.2v-3.1C235.7,43.3,248,43.3,248,43.3z"/>
	<path class="st9" d="M250.1,58.8c-0.4-0.4-0.6-0.9-0.6-1.5s0.2-1.1,0.6-1.5c0.4-0.4,1-0.6,1.7-0.6s1.2,0.2,1.6,0.6
		c0.4,0.4,0.6,0.9,0.6,1.5s-0.2,1.1-0.6,1.5c-0.4,0.4-1,0.6-1.6,0.6C251.1,59.4,250.5,59.2,250.1,58.8z"/>
	<path class="st9" d="M264.5,58.3c-1.2-0.7-2.2-1.7-3-2.9c-0.7-1.2-1.1-2.6-1.1-4.2c0-1.6,0.4-2.9,1.1-4.2c0.7-1.2,1.7-2.2,3-2.9
		c1.2-0.7,2.6-1,4.1-1s2.9,0.3,4.1,1s2.2,1.7,2.9,2.9c0.7,1.2,1.1,2.6,1.1,4.2c0,1.6-0.4,3-1.1,4.2s-1.7,2.2-2.9,2.9
		c-1.2,0.7-2.6,1-4.1,1S265.8,59,264.5,58.3z M271.7,54.5c0.8-0.8,1.1-2,1.1-3.3c0-1.4-0.4-2.5-1.1-3.4c-0.8-0.8-1.8-1.3-3-1.3
		c-1.3,0-2.3,0.4-3.1,1.2c-0.8,0.8-1.1,2-1.1,3.4s0.4,2.5,1.1,3.4c0.8,0.8,1.8,1.3,3.1,1.3C269.9,55.8,270.9,55.4,271.7,54.5z"/>
	<path class="st9" d="M289.2,43.3v3.1h-6.5v3.3h4.8v3h-4.8v6.4h-3.9V43.3H289.2z"/>
	<path class="st9" d="M305.9,56.4H300l-1,2.8h-4l5.7-15.9h4.5l5.7,15.9h-4.1L305.9,56.4z M304.9,53.4l-2-5.8l-1.9,5.8H304.9z"/>
	<path class="st9" d="M326.9,59.2H323l-6.5-9.8v9.8h-3.9V43.3h3.9l6.5,9.8v-9.8h3.9V59.2z"/>
	<path class="st9" d="M340,44.3c1.3,0.7,2.2,1.6,2.9,2.8c0.7,1.2,1,2.6,1,4.1c0,1.6-0.3,2.9-1,4.1c-0.7,1.2-1.7,2.1-2.9,2.8
		c-1.3,0.7-2.7,1-4.4,1h-5.9V43.3h5.9C337.3,43.3,338.8,43.6,340,44.3z M338.8,54.6c0.8-0.8,1.2-1.9,1.2-3.4s-0.4-2.6-1.2-3.4
		c-0.8-0.8-2-1.2-3.4-1.2h-1.8v9.2h1.8C336.9,55.8,338,55.4,338.8,54.6z"/>
	<path class="st9" d="M359.9,43.3v15.9H356v-6.5h-6v6.5h-3.9V43.3h3.9v6.2h6v-6.2H359.9z"/>
	<path class="st9" d="M370.8,59.2l-3.3-6h-0.9v6h-3.9V43.3h6.5c1.3,0,2.3,0.2,3.2,0.7c0.9,0.4,1.5,1,2,1.8c0.4,0.8,0.7,1.6,0.7,2.5
		c0,1.1-0.3,2-0.9,2.8s-1.5,1.4-2.6,1.8l3.7,6.3C375.3,59.2,370.8,59.2,370.8,59.2z M366.5,50.4h2.4c0.7,0,1.2-0.2,1.6-0.5
		s0.5-0.8,0.5-1.5c0-0.6-0.2-1.1-0.5-1.4c-0.4-0.3-0.9-0.5-1.6-0.5h-2.4V50.4z"/>
	<path class="st9" d="M387.3,56.4h-5.9l-1,2.8h-4l5.7-15.9h4.5l5.7,15.9h-4.1L387.3,56.4z M386.3,53.4l-2-5.8l-1.9,5.8H386.3z"/>
	<path class="st9" d="M410.3,50.9c-0.4,0.8-1.1,1.4-1.9,1.8c-0.9,0.5-2,0.7-3.3,0.7h-2.4v5.7h-3.9V43.3h6.3c1.3,0,2.3,0.2,3.2,0.7
		c0.9,0.4,1.5,1,2,1.8c0.4,0.8,0.7,1.7,0.7,2.6C411,49.3,410.8,50.2,410.3,50.9z M406.5,49.9c0.4-0.3,0.5-0.8,0.5-1.5
		c0-0.6-0.2-1.1-0.5-1.5s-0.9-0.5-1.7-0.5h-2.1v4h2.1C405.6,50.4,406.1,50.2,406.5,49.9z"/>
	<path class="st9" d="M421.1,59.2l-3.3-6h-0.9v6H413V43.3h6.5c1.3,0,2.3,0.2,3.2,0.7c0.9,0.4,1.5,1,2,1.8c0.4,0.8,0.7,1.6,0.7,2.5
		c0,1.1-0.3,2-0.9,2.8s-1.5,1.4-2.6,1.8l3.7,6.3C425.6,59.2,421.1,59.2,421.1,59.2z M416.9,50.4h2.4c0.7,0,1.2-0.2,1.6-0.5
		s0.5-0.8,0.5-1.5c0-0.6-0.2-1.1-0.5-1.4c-0.4-0.3-0.9-0.5-1.6-0.5h-2.4V50.4z"/>
	<path class="st9" d="M437.6,56.4h-5.9l-1,2.8h-4l5.7-15.9h4.5l5.7,15.9h-4.1L437.6,56.4z M436.6,53.4l-2-5.8l-1.9,5.8H436.6z"/>
	<path class="st9" d="M454.7,44.3c1.3,0.7,2.2,1.6,2.9,2.8c0.7,1.2,1,2.6,1,4.1c0,1.6-0.3,2.9-1,4.1c-0.7,1.2-1.7,2.1-2.9,2.8
		c-1.3,0.7-2.7,1-4.4,1h-5.9V43.3h5.9C452,43.3,453.5,43.6,454.7,44.3z M453.5,54.6c0.8-0.8,1.2-1.9,1.2-3.4s-0.4-2.6-1.2-3.4
		c-0.8-0.8-2-1.2-3.4-1.2h-1.8v9.2h1.8C451.6,55.8,452.7,55.4,453.5,54.6z"/>
	<path class="st9" d="M464.7,46.4v3.2h5.2v3h-5.2v3.5h5.9v3.1h-9.7V43.3h9.7v3.1C470.6,46.4,464.7,46.4,464.7,46.4z"/>
	<path class="st9" d="M475.7,58.8c-0.9-0.4-1.7-0.9-2.2-1.7c-0.6-0.7-0.8-1.6-0.9-2.7h4.1c0.1,0.6,0.3,1,0.6,1.3
		c0.3,0.3,0.8,0.5,1.4,0.5s1-0.1,1.4-0.4c0.3-0.3,0.5-0.6,0.5-1.1c0-0.4-0.1-0.7-0.4-1s-0.6-0.5-1-0.6c-0.4-0.2-0.9-0.4-1.6-0.6
		c-1-0.3-1.9-0.6-2.5-1c-0.6-0.3-1.2-0.8-1.7-1.4c-0.5-0.6-0.7-1.4-0.7-2.4c0-1.5,0.5-2.6,1.6-3.5c1.1-0.8,2.5-1.3,4.2-1.3
		s3.2,0.4,4.2,1.3c1.1,0.8,1.6,2,1.7,3.5h-4.2c0-0.5-0.2-0.9-0.6-1.2c-0.3-0.3-0.8-0.4-1.3-0.4s-0.8,0.1-1.1,0.4
		c-0.3,0.2-0.4,0.6-0.4,1.1s0.2,0.9,0.7,1.2s1.2,0.6,2.3,0.9c1,0.3,1.9,0.7,2.5,1s1.2,0.8,1.7,1.4c0.5,0.6,0.7,1.4,0.7,2.3
		c0,0.9-0.2,1.7-0.7,2.5c-0.5,0.7-1.1,1.3-2,1.8c-0.9,0.4-1.9,0.7-3.1,0.7C477.7,59.3,476.6,59.1,475.7,58.8z"/>
	<path class="st9" d="M500.7,43.3v15.9h-3.9v-6.5h-6v6.5H487V43.3h3.9v6.2h6v-6.2H500.7z"/>
</g>
</svg>
